<svg width="21" height="27" viewBox="0 0 21 27" fill="none" xmlns="http://www.w3.org/2000/svg">
<path d="M6.64286 2V25.1429M2.78571 2H16.9286C17.6106 2 18.2646 2.27092 18.7468 2.75315C19.2291 3.23539 19.5 3.88944 19.5 4.57143V20C19.5 20.682 19.2291 21.336 18.7468 21.8183C18.2646 22.3005 17.6106 22.5714 16.9286 22.5714H2.78571C2.44472 22.5714 2.1177 22.436 1.87658 22.1949C1.63546 21.9537 1.5 21.6267 1.5 21.2857V3.28571C1.5 2.94472 1.63546 2.6177 1.87658 2.37658C2.1177 2.13546 2.44472 2 2.78571 2V2Z" stroke="#F4B840" stroke-width="3" stroke-linecap="round" stroke-linejoin="round"/>
</svg>
