<svg width="21" height="12" viewBox="0 0 21 12" fill="none" xmlns="http://www.w3.org/2000/svg">
<path d="M1.35173 0.608686C1.6213 0.339196 1.98687 0.187805 2.36804 0.187805C2.74921 0.187805 3.11478 0.339196 3.38435 0.608686L10.5 7.72431L17.6156 0.608686C17.8867 0.346834 18.2498 0.201941 18.6267 0.205216C19.0036 0.208492 19.3642 0.359672 19.6307 0.626197C19.8972 0.892721 20.0484 1.25326 20.0517 1.63017C20.0549 2.00708 19.9101 2.37019 19.6482 2.64131L11.5163 10.7732C11.2467 11.0427 10.8811 11.1941 10.5 11.1941C10.1188 11.1941 9.75323 11.0427 9.48365 10.7732L1.35173 2.64131C1.08224 2.37174 0.930847 2.00617 0.930847 1.625C0.930847 1.24382 1.08224 0.878257 1.35173 0.608686Z" fill="#181818"/>
</svg>
