<svg width="26" height="26" viewBox="0 0 26 26" fill="none" xmlns="http://www.w3.org/2000/svg">
<path d="M22.7652 4.82707C21.5194 3.58999 20.039 2.61422 18.4109 1.95701C16.7828 1.29981 15.0399 0.974416 13.2844 0.999927C9.98883 0.991688 6.82501 2.29293 4.48889 4.61739C2.15278 6.94186 0.835731 10.0991 0.827492 13.3947C0.819254 16.6902 2.1205 19.854 4.44496 22.1901C6.76942 24.5262 9.9267 25.8433 13.2222 25.8515C13.9324 25.8636 14.6264 25.6395 15.1954 25.2145C15.7644 24.7894 16.1761 24.1874 16.366 23.503C16.487 23.0088 16.4857 22.4925 16.3623 21.9989C16.2389 21.5052 15.997 21.0491 15.6577 20.67C15.5792 20.5807 15.528 20.4707 15.5102 20.3532C15.4923 20.2357 15.5085 20.1155 15.5569 20.0069C15.6053 19.8983 15.6839 19.8059 15.7832 19.7406C15.8826 19.6754 15.9986 19.64 16.1174 19.6386H18.1677C20.0974 19.6476 21.959 18.9263 23.3788 17.6195C24.7986 16.3126 25.6714 14.517 25.822 12.5932C25.8682 11.1588 25.6209 9.73004 25.0953 8.39459C24.5697 7.05915 23.7768 5.84516 22.7652 4.82707ZM6.98448 16.8304C6.67939 17.0377 6.31963 17.1499 5.95077 17.1527C5.5819 17.1554 5.2205 17.0487 4.91234 16.8459C4.60418 16.6432 4.36311 16.3535 4.21965 16.0137C4.07619 15.6739 4.0368 15.2991 4.10646 14.9369C4.17613 14.5746 4.35171 14.2412 4.61098 13.9788C4.87025 13.7164 5.20155 13.5368 5.56293 13.4629C5.92431 13.3889 6.29952 13.4238 6.64106 13.5631C6.98259 13.7025 7.27508 13.9401 7.48151 14.2458C7.61983 14.4478 7.71675 14.6751 7.76664 14.9147C7.81654 15.1543 7.81844 15.4015 7.77222 15.6418C7.72599 15.8822 7.63258 16.111 7.49736 16.315C7.36215 16.519 7.18783 16.6942 6.98448 16.8304ZM8.79864 10.0086C8.62185 10.3361 8.35108 10.6031 8.02121 10.7753C7.69134 10.9476 7.31747 11.0171 6.94774 10.975C6.578 10.9329 6.22933 10.7811 5.94661 10.5391C5.6639 10.2972 5.46008 9.97612 5.36141 9.61732C5.26274 9.25852 5.27373 8.87839 5.39297 8.52589C5.5122 8.17338 5.73422 7.86464 6.03045 7.63941C6.32667 7.41418 6.68353 7.28277 7.05508 7.26211C7.42663 7.24145 7.79586 7.33247 8.11522 7.52347C8.52732 7.76992 8.8284 8.16591 8.95572 8.62888C9.08304 9.09186 9.02677 9.58612 8.79864 10.0086ZM12.1536 7.21283C11.785 7.21283 11.4246 7.10351 11.1181 6.89871C10.8116 6.6939 10.5727 6.40281 10.4316 6.06223C10.2905 5.72165 10.2536 5.34689 10.3256 4.98533C10.3975 4.62378 10.575 4.29167 10.8357 4.031C11.0963 3.77033 11.4284 3.59282 11.79 3.5209C12.1515 3.44898 12.5263 3.48589 12.8669 3.62697C13.2075 3.76804 13.4986 4.00693 13.7034 4.31345C13.9082 4.61996 14.0175 4.98032 14.0175 5.34896C14.0175 5.84329 13.8211 6.31737 13.4716 6.66691C13.122 7.01646 12.6479 7.21283 12.1536 7.21283ZM19.2984 8.20689C18.9791 8.39789 18.6098 8.48892 18.2383 8.46825C17.8667 8.44759 17.5099 8.31619 17.2137 8.09096C16.9174 7.86572 16.6954 7.55698 16.5762 7.20448C16.457 6.85197 16.446 6.47185 16.5446 6.11304C16.6433 5.75424 16.8471 5.43318 17.1298 5.19122C17.4125 4.94925 17.7612 4.79744 18.131 4.75535C18.5007 4.71326 18.8746 4.7828 19.2044 4.95503C19.5343 5.12726 19.8051 5.39429 19.9819 5.72173C20.21 6.14424 20.2663 6.6385 20.1389 7.10148C20.0116 7.56446 19.7105 7.96044 19.2984 8.20689Z" fill="#F4B840"/>
</svg>
