<svg width="19.12" height="11.01" viewBox="0 0 21 12" fill="none" xmlns="http://www.w3.org/2000/svg">
<path d="M1.35173 11.3913C1.6213 11.6608 1.98687 11.8122 2.36804 11.8122C2.74921 11.8122 3.11478 11.6608 3.38435 11.3913L10.5 4.27569L17.6156 11.3913C17.8867 11.6532 18.2498 11.7981 18.6267 11.7948C19.0036 11.7915 19.3642 11.6403 19.6307 11.3738C19.8972 11.1073 20.0484 10.7467 20.0517 10.3698C20.0549 9.99292 19.9101 9.62981 19.6482 9.35869L11.5163 1.22675C11.2467 0.957261 10.8811 0.80587 10.5 0.80587C10.1188 0.80587 9.75323 0.957261 9.48365 1.22675L1.35173 9.35869C1.08224 9.62826 0.930847 9.99383 0.930847 10.375C0.930847 10.7562 1.08224 11.1217 1.35173 11.3913Z" fill="#181818"/>
</svg>
